<?xml version="1.0" standalone="no"?>
<!DOCTYPE svg PUBLIC "-//W3C//DTD SVG 1.1//EN" "http://www.w3.org/Graphics/SVG/1.1/DTD/svg11.dtd" >
<svg>
<metadata>
Created by FontForge 20090914 at Fri Feb 24 15:54:07 2012
 By root
Copyright (c) 2012, Agustina Mingote (agustinamingote@gmail.com), with Reserved Font Names "Gudea"
</metadata>
<defs>
<font id="Gudea-Bold" horiz-adv-x="503" >
  <font-face 
    font-family="Gudea"
    font-weight="700"
    font-stretch="normal"
    units-per-em="1000"
    panose-1="2 0 0 0 0 0 0 0 0 0"
    ascent="800"
    descent="-200"
    x-height="500"
    cap-height="700"
    bbox="-75 -264 1016 972"
    underline-thickness="50"
    underline-position="-50"
    unicode-range="U+000C-U+FB02"
  />
<missing-glyph horiz-adv-x="211" 
 />
    <glyph glyph-name=".notdef" horiz-adv-x="211" 
 />
    <glyph glyph-name="_0000" horiz-adv-x="0" 
 />
    <glyph glyph-name="CR" horiz-adv-x="211" 
 />
    <glyph glyph-name="space" unicode=" " horiz-adv-x="250" 
 />
    <glyph glyph-name="t" unicode="t" horiz-adv-x="346" 
d="M76 108v282h-51v110h52v143h129v-143h105v-110h-106v-218c0 -50 15 -67 41 -67c15 0 27 1 49 6l21 -104c-28 -8 -52 -13 -84 -13c-74 0 -156 25 -156 114z" />
    <glyph glyph-name="o" unicode="o" horiz-adv-x="527" 
d="M257 -7c-147 0 -225 98 -225 257s78 260 225 260c146 0 237 -101 237 -260s-81 -257 -237 -257zM361 251c0 94 -25 153 -98 153c-74 0 -100 -61 -100 -153s28 -151 101 -151c76 0 97 60 97 151z" />
    <glyph glyph-name="n" unicode="n" horiz-adv-x="586" 
d="M505 0h-132v299c0 51 -19 92 -65 92c-27 0 -59 -15 -96 -46v-345h-131v500h110l21 -45c59 44 94 55 148 55c86 0 145 -56 145 -176v-334z" />
    <glyph glyph-name="r" unicode="r" horiz-adv-x="391" 
d="M212 332v-332h-131v500h104l12 -49c49 40 80 59 127 59c27 0 43 -6 44 -6l-12 -119c-9 3 -28 6 -49 6c-35 0 -69 -30 -95 -59z" />
    <glyph glyph-name="p" unicode="p" horiz-adv-x="546" 
d="M211 -237h-130v737h99l24 -53c39 32 80 63 136 63c112 0 170 -101 170 -259c0 -183 -98 -258 -188 -258c-54 0 -89 29 -111 48v-278zM211 346v-183c20 -33 53 -52 84 -52c59 0 80 48 80 138c0 98 -33 146 -70 146c-43 0 -73 -29 -94 -49z" />
    <glyph glyph-name="e" unicode="e" horiz-adv-x="495" 
d="M445 31c-72 -28 -119 -37 -176 -37c-154 0 -235 79 -235 254c0 173 79 262 223 262c115 0 198 -70 198 -222c0 -22 -1 -52 -4 -77h-289c0 -82 50 -115 118 -115c41 0 84 8 143 24zM330 303v7c0 57 -23 102 -83 102c-61 0 -85 -53 -86 -109h169z" />
    <glyph glyph-name="a" unicode="a" 
d="M346 0l-20 50c-45 -41 -75 -57 -127 -57c-82 0 -159 62 -159 161c0 98 73 161 233 161h41c0 54 -24 95 -83 95c-38 0 -103 -8 -148 -20l-22 88c65 21 136 32 199 32c134 0 182 -67 182 -170v-340h-96zM312 219h-43c-79 0 -96 -23 -96 -60c0 -36 22 -63 54 -63
c27 0 49 16 85 54v69z" />
    <glyph glyph-name="v" unicode="v" horiz-adv-x="465" 
d="M464 500l-159 -500h-146l-158 500h135l97 -370l98 370h133z" />
    <glyph glyph-name="E" unicode="E" horiz-adv-x="542" 
d="M488 0h-417v700h417v-115h-272v-147h247v-117h-247v-206h272v-115z" />
    <glyph glyph-name="F" unicode="F" horiz-adv-x="510" 
d="M489 700v-115h-273v-147h249v-117h-249v-321h-145v700h418z" />
    <glyph glyph-name="O" unicode="O" horiz-adv-x="648" 
d="M323 -5c-206 0 -297 164 -297 360c0 198 94 355 297 355c205 0 299 -157 299 -355c0 -196 -94 -360 -299 -360zM325 595c-112 0 -153 -122 -153 -240c0 -131 48 -244 152 -244c108 0 153 116 153 249c0 117 -52 235 -152 235z" />
    <glyph glyph-name="T" unicode="T" horiz-adv-x="504" 
d="M181 0v583h-161v117h464v-117h-159v-583h-144z" />
    <glyph glyph-name="L" unicode="L" horiz-adv-x="473" 
d="M486 0h-415v700h145v-585h270v-115z" />
    <glyph glyph-name="A" unicode="A" horiz-adv-x="579" 
d="M586 0h-144l-50 171h-211l-49 -171h-139l210 700h171zM365 286l-77 288l-78 -288h155z" />
    <glyph glyph-name="N" unicode="N" horiz-adv-x="679" 
d="M608 -1h-152l-237 431v-430h-148v700h148l244 -452v452h145v-701z" />
    <glyph glyph-name="Y" unicode="Y" horiz-adv-x="552" 
d="M559 700l-215 -405v-295h-145v295l-206 405h153l127 -274l135 274h151z" />
    <glyph glyph-name="S" unicode="S" horiz-adv-x="551" 
d="M463 675l-24 -117c3 0 -95 32 -177 32c-44 0 -68 -22 -68 -65c0 -108 320 -90 320 -311c0 -136 -91 -220 -254 -220c-89 0 -178 29 -225 55l43 107s92 -42 182 -42c67 0 109 32 109 89c0 118 -320 98 -320 319c0 123 83 188 213 188c67 0 137 -14 201 -35z" />
    <glyph glyph-name="H" unicode="H" horiz-adv-x="664" 
d="M593 0h-145v306h-232v-306h-145v700h145v-279h232v279h145v-700z" />
    <glyph glyph-name="I" unicode="I" horiz-adv-x="257" 
d="M201 0h-145v700h145v-700z" />
    <glyph glyph-name="V" unicode="V" horiz-adv-x="546" 
d="M553 700l-206 -700h-165l-189 700h154l121 -515l133 515h152z" />
    <glyph glyph-name="h" unicode="h" horiz-adv-x="585" 
d="M504 0h-130v299c0 51 -19 92 -65 92c-27 0 -61 -15 -98 -46v-345h-130v700h130v-245c59 44 94 55 148 55c86 0 145 -56 145 -176v-334z" />
    <glyph glyph-name="d" unicode="d" horiz-adv-x="542" 
d="M460 0h-98l-20 57c-65 -49 -104 -63 -146 -63c-97 0 -164 83 -164 252c0 181 80 264 183 264c37 0 70 -13 116 -50v240h129v-700zM330 154v199c-34 28 -62 44 -88 44c-47 0 -80 -46 -80 -147c0 -94 29 -140 76 -140c26 0 57 15 92 44z" />
    <glyph glyph-name="c" unicode="c" horiz-adv-x="430" 
d="M391 109l16 -90c-56 -16 -89 -25 -138 -25c-172 0 -234 95 -234 256s76 260 223 260c63 0 112 -14 146 -24l-47 -91c-29 9 -47 17 -96 17c-88 0 -96 -88 -96 -158c0 -122 45 -158 126 -158c34 0 68 4 100 13z" />
    <glyph glyph-name="s" unicode="s" horiz-adv-x="444" 
d="M205 99c46 0 75 18 75 52c0 101 -228 45 -228 207c0 97 63 152 171 152c70 0 121 -16 152 -28l-21 -104c1 0 -66 27 -129 27c-34 0 -44 -11 -44 -30c0 -71 228 -33 228 -210c0 -105 -73 -171 -200 -171c-64 0 -131 23 -165 43l28 96s67 -34 133 -34z" />
    <glyph glyph-name="i" unicode="i" horiz-adv-x="284" 
d="M207 575h-130v125h130v-125zM207 0h-130v500h130v-500z" />
    <glyph glyph-name="g" unicode="g" horiz-adv-x="545" 
d="M344 -39v97c-65 -49 -106 -64 -148 -64c-97 0 -164 83 -164 252c0 181 80 264 183 264c37 0 74 -14 120 -51l19 41h111v-533c0 -177 -149 -202 -216 -202c-65 0 -130 7 -197 35l19 92c58 -18 100 -24 150 -24s123 6 123 93zM335 154v199c-34 28 -67 44 -93 44
c-47 0 -80 -46 -80 -147c0 -94 29 -140 76 -140c26 0 62 15 97 44z" />
    <glyph glyph-name="q" unicode="q" horiz-adv-x="542" 
d="M331 158v191c-18 24 -64 46 -100 46c-47 0 -69 -40 -69 -140c0 -74 12 -147 85 -147c33 0 67 19 84 50zM461 -236h-130v282c-16 -13 -46 -53 -124 -53c-89 0 -175 63 -175 244c0 153 52 273 193 273c42 0 84 -29 111 -57l26 47h99v-736z" />
    <glyph glyph-name="one" unicode="1" horiz-adv-x="519" 
d="M32 0v100h180v471l-147 -96l-47 96l194 129h125v-600h138v-100h-443z" />
    <glyph glyph-name="l" unicode="l" horiz-adv-x="302" 
d="M211 0h-130v700h130v-700z" />
    <glyph glyph-name="w" unicode="w" horiz-adv-x="689" 
d="M127 0l-126 500h128l71 -371l83 371h124l84 -375l69 375h128l-124 -500h-143l-76 335l-77 -335h-141z" />
    <glyph glyph-name="x" unicode="x" horiz-adv-x="456" 
d="M153 500l75 -136l75 136h133l-140 -245l146 -255h-133l-81 158l-81 -158h-133l146 255l-140 245h133z" />
    <glyph glyph-name="z" unicode="z" horiz-adv-x="421" 
d="M39 500h327v-100l-193 -295h205v-105h-339v100l192 295h-192v105z" />
    <glyph glyph-name="u" unicode="u" horiz-adv-x="576" 
d="M71 500h132v-306c0 -51 19 -92 65 -92c27 0 59 15 96 46v352h131v-500h-110l-21 48c-59 -44 -94 -54 -148 -54c-86 0 -145 55 -145 175v331z" />
    <glyph glyph-name="ydieresis" unicode="&#xff;" horiz-adv-x="455" 
d="M60 581v131h121v-131h-121zM279 581v131h121v-131h-121zM1 500l164 -510c-17 -70 -77 -115 -122 -134l48 -92c93 44 154 111 196 236l167 500h-128l-98 -345l-97 345h-130z" />
    <glyph glyph-name="j" unicode="j" horiz-adv-x="276" 
d="M30 -176c33 43 41 96 41 170v506h128v-482c0 -127 -42 -201 -92 -254zM200 575h-130v125h130v-125z" />
    <glyph glyph-name="m" unicode="m" horiz-adv-x="848" 
d="M212 0h-131v500h110l17 -45c59 44 94 55 148 55c53 0 90 -27 111 -69c77 57 114 69 166 69c80 0 134 -59 134 -179v-331h-131v296c0 51 -16 92 -55 92c-27 0 -58 -15 -94 -46v-342h-130v296c0 51 -15 92 -54 92c-26 0 -58 -15 -91 -43v-345z" />
    <glyph glyph-name="b" unicode="b" horiz-adv-x="540" 
d="M514 258c0 -176 -84 -258 -189 -258c-43 0 -77 12 -126 56l-19 -56h-99v700h130v-246c52 38 90 56 133 56c100 0 170 -86 170 -252zM386 255c0 93 -28 139 -84 139c-24 0 -56 -15 -91 -45v-193c34 -29 62 -45 87 -45c53 0 88 45 88 144z" />
    <glyph glyph-name="y" unicode="y" horiz-adv-x="455" 
d="M165 -10l-164 510h130l97 -345l98 345h128l-167 -500c-42 -125 -103 -192 -196 -236l-48 92c45 19 105 64 122 134z" />
    <glyph glyph-name="k" unicode="k" horiz-adv-x="543" 
d="M81 700h130v-381l156 181h147l-183 -204l199 -296h-141l-135 216l-43 -50v-166h-130v700z" />
    <glyph glyph-name="nine" unicode="9" horiz-adv-x="557" 
d="M271 261c-144 0 -228 76 -228 222c0 134 87 227 228 227c175 0 242 -120 242 -316c0 -218 -54 -400 -276 -400c-94 0 -161 33 -161 33l28 100s70 -27 142 -27c106 0 142 85 149 188c-19 -9 -68 -27 -124 -27zM266 605c-67 0 -108 -51 -108 -114c0 -88 44 -125 117 -125
c55 0 107 27 123 36v4c0 126 -34 199 -132 199z" />
    <glyph glyph-name="M" unicode="M" horiz-adv-x="737" 
d="M701 0h-145v434l-125 -270h-126l-125 269v-433h-144v700h154l179 -375l187 375h145v-700z" />
    <glyph glyph-name="seven" unicode="7" horiz-adv-x="507" 
d="M16 585v115h471v-115l-300 -585h-133l294 585h-332z" />
    <glyph glyph-name="C" unicode="C" horiz-adv-x="584" 
d="M346 -6c-208 0 -316 142 -316 359c0 216 119 356 327 356c66 0 107 -8 167 -29l-28 -112c-49 21 -109 26 -144 26c-112 0 -177 -93 -177 -230c0 -154 59 -255 168 -255c70 0 134 26 171 39l30 -102c-35 -20 -102 -52 -198 -52z" />
    <glyph glyph-name="zero" unicode="0" horiz-adv-x="580" 
d="M536 352c0 -177 -52 -358 -252 -358c-199 0 -239 183 -239 358c0 178 53 358 251 358c199 0 240 -182 240 -358zM411 350v4c0 133 -27 246 -120 246c-91 0 -121 -115 -121 -248c0 -132 29 -248 121 -248c91 0 120 115 120 246z" />
    <glyph glyph-name="f" unicode="f" horiz-adv-x="325" 
d="M330 701l-17 -93c-20 4 -27 5 -43 5c-31 0 -49 -11 -49 -61v-52h82v-107h-82v-393h-129v393h-57v107h58v76c0 89 58 134 129 134c57 0 84 -3 108 -9z" />
    <glyph glyph-name="_0001" horiz-adv-x="0" 
 />
    <glyph glyph-name="R" unicode="R" horiz-adv-x="603" 
d="M228 304h-12v-303h-145v700h222c153 0 225 -71 225 -191c0 -73 -58 -146 -134 -156c57 -15 78 -49 108 -119l99 -234h-149l-97 224c-28 65 -52 79 -117 79zM289 587h-73v-169h63c55 0 85 41 85 90c0 52 -27 79 -75 79z" />
    <glyph glyph-name="P" unicode="P" horiz-adv-x="541" 
d="M268 269h-52v-269h-145v700h220c167 0 233 -73 233 -212c0 -154 -101 -219 -256 -219zM257 586h39h-80v-203h16c97 0 147 25 147 103c0 69 -36 100 -122 100z" />
    <glyph glyph-name="Q" unicode="Q" horiz-adv-x="651" 
d="M558 111l93 -96l-79 -79l-95 101c-39 -28 -91 -44 -154 -44c-206 0 -297 166 -297 362c0 198 94 355 297 355c205 0 299 -157 299 -355c0 -93 -22 -182 -64 -244zM419 258l32 -39c18 35 26 91 26 141c0 117 -52 236 -153 236c-113 0 -152 -123 -152 -241
c0 -131 48 -246 152 -246c26 0 47 6 63 18l-48 52z" />
    <glyph glyph-name="four" unicode="4" horiz-adv-x="540" 
d="M311 0v111h-306v94l219 495h125l-212 -479h174v161h117v-161h68v-110h-68v-111h-117z" />
    <glyph glyph-name="five" unicode="5" horiz-adv-x="558" 
d="M394 220c0 83 -55 120 -142 120c-79 0 -162 1 -162 1l24 359h377l-5 -105h-258l-11 -146s22 1 43 1c151 0 254 -80 254 -220c0 -141 -87 -236 -257 -236c-117 0 -204 53 -204 53l38 93s88 -40 172 -40s131 44 131 120z" />
    <glyph glyph-name="three" unicode="3" horiz-adv-x="528" 
d="M126 411h105c71 0 110 46 110 103c0 53 -27 86 -99 86c-76 0 -161 -41 -161 -41l-24 103s83 48 182 48c155 0 222 -77 222 -188c0 -82 -43 -149 -104 -163c71 -12 127 -67 127 -152c0 -133 -93 -213 -253 -213c-115 0 -192 47 -192 47l40 101s80 -38 164 -38
c77 0 120 37 120 91c0 64 -47 106 -132 106h-105v110z" />
    <glyph glyph-name="six" unicode="6" horiz-adv-x="576" 
d="M304 443c144 0 228 -76 228 -222c0 -134 -87 -227 -228 -227c-175 0 -242 120 -242 316c0 218 54 400 276 400c94 0 161 -33 161 -33l-28 -100s-70 27 -142 27c-107 0 -143 -85 -150 -188c19 8 69 27 125 27zM309 99c67 0 108 51 108 114c0 88 -44 125 -117 125
c-55 0 -108 -28 -123 -37c0 -129 34 -202 132 -202z" />
    <glyph glyph-name="two" unicode="2" horiz-adv-x="524" 
d="M480 110l-1 -110h-432v102c195 194 306 323 306 425c0 58 -49 73 -106 73c-86 0 -168 -26 -168 -26l-19 103s80 33 185 33c158 0 234 -68 234 -171c0 -122 -98 -255 -258 -429h259z" />
    <glyph glyph-name="eight" unicode="8" horiz-adv-x="575" 
d="M513 545c0 -110 -61 -177 -89 -201c59 -33 107 -75 107 -150c0 -126 -90 -200 -250 -200s-229 92 -229 191c0 104 85 161 116 179c-52 32 -93 77 -93 155c0 123 88 191 226 191c134 0 212 -79 212 -165zM416 185c0 66 -66 95 -148 127c-24 -12 -101 -55 -101 -123
c0 -51 35 -92 124 -92c70 0 125 34 125 88zM400 530c0 41 -39 75 -101 75c-64 0 -111 -31 -111 -76c0 -73 68 -102 141 -135c22 19 71 67 71 136z" />
    <glyph glyph-name="B" unicode="B" horiz-adv-x="587" 
d="M71 0v700h220c159 0 233 -67 233 -179c0 -79 -48 -131 -121 -142c95 -16 149 -81 149 -169c0 -125 -98 -210 -268 -210h-213zM209 115h99c66 0 106 40 106 89c0 62 -41 114 -127 114h-78v-203zM296 585h-87v-153h77c48 0 100 32 100 86c0 44 -30 64 -90 67z" />
    <glyph glyph-name="W" unicode="W" horiz-adv-x="751" 
d="M758 700l-166 -700h-147l-62 306l-85 -306h-142l-163 700h156l82 -515l83 325h136l73 -325l86 515h149z" />
    <glyph glyph-name="G" unicode="G" horiz-adv-x="646" 
d="M362 -6c-206 0 -336 142 -336 359c0 216 119 357 327 357c68 0 143 -14 207 -36l-18 -112c-56 21 -156 33 -194 33c-112 0 -177 -94 -177 -231c0 -150 75 -255 180 -255c30 0 61 8 84 20v136h-116v115h261v-332c-39 -20 -117 -54 -218 -54z" />
    <glyph glyph-name="D" unicode="D" horiz-adv-x="647" 
d="M617 375c0 -225 -141 -375 -360 -375h-186v700h217c201 0 329 -137 329 -325zM466 383c0 131 -84 202 -174 202h-80v-470h54c107 0 200 94 200 268z" />
    <glyph glyph-name="U" unicode="U" horiz-adv-x="664" 
d="M332 -6c-168 0 -261 88 -261 264v442h146v-454c0 -88 40 -137 115 -137c71 0 115 48 115 137v454h146v-442c0 -176 -93 -264 -261 -264z" />
    <glyph glyph-name="Z" unicode="Z" horiz-adv-x="508" 
d="M499 0h-479v112l290 473h-291v115h449v-107l-287 -477h318v-116z" />
    <glyph glyph-name="J" unicode="J" horiz-adv-x="343" 
d="M272 211c0 -141 -51 -218 -171 -218c-48 0 -84 4 -120 11v113c18 0 42 -9 89 -9s57 56 57 120v363h-115v109h260v-489z" />
    <glyph glyph-name="exclam" unicode="!" horiz-adv-x="266" 
d="M68 125h130v-125h-130v125zM68 700h130v-510h-130v510z" />
    <glyph glyph-name="quotedbl" unicode="&#x22;" horiz-adv-x="378" 
d="M54 700h111v-259h-111v259zM213 700h111v-259h-111v259z" />
    <glyph glyph-name="parenleft" unicode="(" horiz-adv-x="299" 
d="M40 311c0 154 48 317 138 453l106 -13c-63 -135 -99 -290 -99 -443c0 -151 37 -294 97 -426l-109 -12c-87 136 -133 287 -133 441z" />
    <glyph glyph-name="parenright" unicode=")" horiz-adv-x="299" 
d="M259 311c0 -154 -46 -305 -133 -441l-109 12c60 132 97 275 97 426c0 153 -36 308 -99 443l106 13c90 -136 138 -299 138 -453z" />
    <glyph glyph-name="plus" unicode="+" horiz-adv-x="469" 
d="M440 242h-153v-173h-115v173h-144v105h144v180h115v-180h153v-105z" />
    <glyph glyph-name="quotesingle" unicode="'" horiz-adv-x="185" 
d="M37 700h111v-259h-111v259z" />
    <glyph glyph-name="comma" unicode="," horiz-adv-x="244" 
d="M212 70l-113 -248l-99 32l87 257z" />
    <glyph glyph-name="hyphen" unicode="-" horiz-adv-x="287" 
d="M259 234h-231v115h231v-115z" />
    <glyph glyph-name="period" unicode="." horiz-adv-x="183" 
d="M149 0h-115v136h115v-136z" />
    <glyph glyph-name="asterisk" unicode="*" horiz-adv-x="430" 
d="M388 481l-47 -89l-96 64l11 -113h-100l8 114l-95 -64l-49 83l104 50l-103 50l53 85l90 -65c-2 38 -6 82 -8 114h100l-11 -114l96 65l47 -89l-101 -45z" />
    <glyph glyph-name="slash" unicode="/" horiz-adv-x="491" 
d="M461 800l-294 -945h-130l295 945h129z" />
    <glyph glyph-name="colon" unicode=":" horiz-adv-x="217" 
d="M171 0h-125v146h125v-146zM171 354h-125v146h125v-146z" />
    <glyph glyph-name="semicolon" unicode=";" horiz-adv-x="276" 
d="M205 129l-113 -299l-99 31l90 307zM204 354h-125v146h125v-146z" />
    <glyph glyph-name="equal" unicode="=" horiz-adv-x="580" 
d="M515 331h-450v105h450v-105zM515 153h-450v105h450v-105z" />
    <glyph glyph-name="numbersign" unicode="#" horiz-adv-x="619" 
d="M588 442h-100l-16 -161h90v-100h-100c-5 -57 -14 -127 -19 -181h-110l19 181h-112c-6 -57 -15 -127 -20 -181h-110l19 181h-108v100h118c5 56 12 100 17 161h-110v99h119l17 160h111l-17 -160h112l17 160h109l-15 -160h89v-99zM380 442h-113c-6 -56 -13 -102 -18 -161
h112c7 56 13 100 19 161z" />
    <glyph glyph-name="bracketleft" unicode="[" horiz-adv-x="340" 
d="M311 -200h-230v1000h227v-105h-102v-791h105v-104z" />
    <glyph glyph-name="bracketright" unicode="]" horiz-adv-x="340" 
d="M259 -200h-230v104h105v791h-102v105h227v-1000z" />
    <glyph glyph-name="grave" unicode="`" horiz-adv-x="391" 
d="M274 599l-88 -32l-130 123l115 46z" />
    <glyph glyph-name="agrave" unicode="&#xe0;" 
d="M346 0l-20 50c-45 -41 -75 -57 -127 -57c-82 0 -159 62 -159 161c0 98 73 161 233 161h41c0 54 -24 95 -83 95c-38 0 -103 -8 -148 -20l-22 88c65 21 136 32 199 32c134 0 182 -67 182 -170v-340h-96zM312 219h-43c-79 0 -96 -23 -96 -60c0 -36 22 -63 54 -63
c27 0 49 16 85 54v69zM349 599l-88 -32l-130 123l115 46z" />
    <glyph glyph-name="egrave" unicode="&#xe8;" horiz-adv-x="495" 
d="M445 31c-72 -28 -119 -37 -176 -37c-154 0 -235 79 -235 254c0 173 79 262 223 262c115 0 198 -70 198 -222c0 -22 -1 -52 -4 -77h-289c0 -82 50 -115 118 -115c41 0 84 8 143 24zM330 303v7c0 57 -23 102 -83 102c-61 0 -85 -53 -86 -109h169zM326 599l-88 -32l-130 123
l115 46z" />
    <glyph glyph-name="igrave" unicode="&#xec;" horiz-adv-x="284" 
d="M189 599l-88 -32l-130 123l115 46zM77 0v500h130v-500h-130z" />
    <glyph glyph-name="ugrave" unicode="&#xf9;" horiz-adv-x="576" 
d="M71 500h132v-306c0 -51 19 -92 65 -92c27 0 59 15 96 46v352h131v-500h-110l-21 48c-59 -44 -94 -54 -148 -54c-86 0 -145 55 -145 175v331zM366 599l-88 -32l-130 123l115 46z" />
    <glyph glyph-name="ograve" unicode="&#xf2;" horiz-adv-x="527" 
d="M257 -7c156 0 237 98 237 257s-91 260 -237 260c-147 0 -225 -101 -225 -260s78 -257 225 -257zM361 251c0 -91 -21 -151 -97 -151c-73 0 -101 59 -101 151s26 153 100 153c73 0 98 -59 98 -153zM336 599l-88 -32l-130 123l115 46z" />
    <glyph glyph-name="acute" unicode="&#xb4;" horiz-adv-x="404" 
d="M179 567l-88 32l103 137l115 -46z" />
    <glyph glyph-name="aacute" unicode="&#xe1;" 
d="M346 0l-20 50c-45 -41 -75 -57 -127 -57c-82 0 -159 62 -159 161c0 98 73 161 233 161h41c0 54 -24 95 -83 95c-38 0 -103 -8 -148 -20l-22 88c65 21 136 32 199 32c134 0 182 -67 182 -170v-340h-96zM312 219h-43c-79 0 -96 -23 -96 -60c0 -36 22 -63 54 -63
c27 0 49 16 85 54v69zM297 567l-88 32l103 137l115 -46z" />
    <glyph glyph-name="eacute" unicode="&#xe9;" horiz-adv-x="495" 
d="M445 31c-72 -28 -119 -37 -176 -37c-154 0 -235 79 -235 254c0 173 79 262 223 262c115 0 198 -70 198 -222c0 -22 -1 -52 -4 -77h-289c0 -82 50 -115 118 -115c41 0 84 8 143 24zM330 303v7c0 57 -23 102 -83 102c-61 0 -85 -53 -86 -109h169zM286 567l-88 32l103 137
l115 -46z" />
    <glyph glyph-name="iacute" unicode="&#xed;" horiz-adv-x="284" 
d="M186 567l-88 32l103 137l115 -46zM77 0v500h130v-500h-130z" />
    <glyph glyph-name="oacute" unicode="&#xf3;" horiz-adv-x="527" 
d="M257 -7c-147 0 -225 98 -225 257s78 260 225 260c146 0 237 -101 237 -260s-81 -257 -237 -257zM361 251c0 94 -25 153 -98 153c-74 0 -100 -61 -100 -153s28 -151 101 -151c76 0 97 60 97 151zM274 567l-88 32l103 137l115 -46z" />
    <glyph glyph-name="uacute" unicode="&#xfa;" horiz-adv-x="576" 
d="M71 500h132v-306c0 -51 19 -92 65 -92c27 0 59 15 96 46v352h131v-500h-110l-21 48c-59 -44 -94 -54 -148 -54c-86 0 -145 55 -145 175v331zM314 567l-88 32l103 137l115 -46z" />
    <glyph glyph-name="percent" unicode="%" horiz-adv-x="737" 
d="M546 246c-27 0 -41 -37 -41 -82c0 -44 11 -80 40 -80c32 0 43 36 43 80c0 45 -13 82 -42 82zM545 336c117 0 148 -86 148 -173c0 -98 -39 -169 -150 -169c-101 0 -143 71 -143 169c0 87 39 173 145 173zM176 606c-27 0 -41 -37 -41 -82c0 -44 11 -80 40 -80
c32 0 43 36 43 80c0 45 -13 82 -42 82zM175 696c117 0 148 -86 148 -173c0 -98 -39 -169 -150 -169c-101 0 -143 71 -143 169c0 87 39 173 145 173zM616 688l-388 -688h-138l388 688h138z" />
    <glyph glyph-name="greater" unicode="&#x3e;" horiz-adv-x="528" 
d="M64 551l412 -204v-97l-412 -205v120l279 133l-279 135v118z" />
    <glyph glyph-name="less" unicode="&#x3c;" horiz-adv-x="528" 
d="M463 45l-412 204v97l412 205v-120l-279 -133l279 -135v-118z" />
    <glyph glyph-name="K" unicode="K" horiz-adv-x="573" 
d="M575 0h-164l-155 323l-40 -45v-278h-145v700h144v-256l192 256h172l-222 -266z" />
    <glyph glyph-name="X" unicode="X" horiz-adv-x="584" 
d="M584 0h-162l-128 245l-133 -245h-161l222 368l-201 332h165l111 -206l116 206h160l-204 -332z" />
    <glyph glyph-name="dollar" unicode="$" horiz-adv-x="508" 
d="M299 660c60 -8 126 -37 126 -37l-24 -100c3 0 -85 39 -157 39c-41 0 -63 -23 -63 -64c0 -123 289 -63 289 -282c0 -104 -62 -171 -171 -184v-92h-105v90c-65 4 -118 28 -152 49l32 90s85 -37 169 -37c62 0 101 30 101 84c0 118 -290 68 -290 280c0 101 60 155 140 164v87
h105v-87z" />
    <glyph glyph-name="Eacute" unicode="&#xc9;" horiz-adv-x="542" 
d="M488 0h-417v700h417v-115h-272v-147h247v-117h-247v-206h272v-115zM190 752l75 124h134l-98 -124h-111z" />
    <glyph glyph-name="Igrave" unicode="&#xcc;" horiz-adv-x="257" 
d="M201 0h-145v700h145v-700zM185 753h-111l-98 124h134z" />
    <glyph glyph-name="Iacute" unicode="&#xcd;" horiz-adv-x="257" 
d="M201 0h-145v700h145v-700zM73 753l75 124h134l-98 -124h-111z" />
    <glyph glyph-name="Ograve" unicode="&#xd2;" horiz-adv-x="648" 
d="M323 -5c205 0 299 164 299 360c0 198 -94 355 -299 355c-203 0 -297 -157 -297 -355c0 -196 91 -360 297 -360zM325 595c100 0 152 -118 152 -235c0 -133 -45 -249 -153 -249c-104 0 -152 113 -152 244c0 118 41 240 153 240zM361 753h-111l-98 124h134z" />
    <glyph glyph-name="Oacute" unicode="&#xd3;" horiz-adv-x="648" 
d="M323 -5c205 0 299 164 299 360c0 198 -94 355 -299 355c-203 0 -297 -157 -297 -355c0 -196 91 -360 297 -360zM325 595c100 0 152 -118 152 -235c0 -133 -45 -249 -153 -249c-104 0 -152 113 -152 244c0 118 41 240 153 240zM251 753l75 124h134l-98 -124h-111z" />
    <glyph glyph-name="Ugrave" unicode="&#xd9;" horiz-adv-x="664" 
d="M332 -6c168 0 261 88 261 264v442h-146v-454c0 -89 -44 -137 -115 -137c-75 0 -115 49 -115 137v454h-146v-442c0 -176 93 -264 261 -264zM392 754h-111l-98 124h134z" />
    <glyph glyph-name="Uacute" unicode="&#xda;" horiz-adv-x="664" 
d="M332 -6c168 0 261 88 261 264v442h-146v-454c0 -89 -44 -137 -115 -137c-75 0 -115 49 -115 137v454h-146v-442c0 -176 93 -264 261 -264zM273 753l75 124h134l-98 -124h-111z" />
    <glyph glyph-name="Aacute" unicode="&#xc1;" horiz-adv-x="579" 
d="M586 0h-144l-50 171h-211l-49 -171h-139l210 700h171zM365 286l-77 288l-78 -288h155zM229 752l75 124h134l-98 -124h-111z" />
    <glyph glyph-name="Agrave" unicode="&#xc0;" horiz-adv-x="579" 
d="M586 0h-144l-50 171h-211l-49 -171h-139l210 700h171zM365 286l-77 288l-78 -288h155zM338 753h-111l-98 124h134z" />
    <glyph glyph-name="yacute" unicode="&#xfd;" horiz-adv-x="455" 
d="M165 -10l-164 510h130l97 -345l98 345h128l-167 -500c-42 -125 -103 -192 -196 -236l-48 92c45 19 105 64 122 134zM226 567l-88 32l103 137l115 -46z" />
    <glyph glyph-name="Yacute" unicode="&#xdd;" horiz-adv-x="552" 
d="M559 700l-215 -405v-295h-145v295l-206 405h153l127 -274l135 274h151zM206 753l75 124h134l-98 -124h-111z" />
    <glyph glyph-name="backslash" unicode="\" horiz-adv-x="484" 
d="M323 -145l-294 945h129l295 -945h-130z" />
    <glyph glyph-name="asciicircum" unicode="^" horiz-adv-x="639" 
d="M377 667l204 -392h-137l-125 249l-123 -249h-140l205 392h116z" />
    <glyph glyph-name="bar" unicode="|" horiz-adv-x="291" 
d="M203 -203h-115v1003h115v-1003z" />
    <glyph glyph-name="ampersand" unicode="&#x26;" horiz-adv-x="756" 
d="M517 361h112c-8 -130 -25 -168 -47 -214l143 -146h-170l-52 49c-42 -31 -126 -57 -209 -57c-162 0 -245 81 -245 200c0 95 45 135 122 181c-53 63 -85 111 -85 165c0 101 85 171 202 171c122 0 197 -66 197 -160c0 -78 -41 -130 -129 -185l139 -134c15 32 22 84 22 130z
M416 138l-155 156c-50 -26 -87 -59 -87 -107c0 -52 45 -89 120 -89c53 0 104 22 122 40zM211 553c0 -41 32 -73 66 -114c46 27 86 61 86 116c0 35 -36 50 -78 50c-41 0 -74 -18 -74 -52z" />
    <glyph glyph-name="circumflex" unicode="&#x2c6;" horiz-adv-x="491" 
d="M203 830h87l126 -90l-44 -64l-126 65l-127 -65l-44 64z" />
    <glyph glyph-name="dieresis" unicode="&#xa8;" horiz-adv-x="513" 
d="M78 694v131h121v-131h-121zM297 694v131h121v-131h-121z" />
    <glyph glyph-name="tilde" unicode="&#x2dc;" horiz-adv-x="516" 
d="M396 811l63 -47c-2 -7 -75 -92 -124 -92c-25 0 -57 16 -87 31c-23 11 -43 20 -51 20c-24 0 -62 -43 -62 -43l-57 56s69 85 119 85c25 0 58 -16 88 -31c22 -11 42 -20 50 -20c24 0 61 41 61 41z" />
    <glyph glyph-name="Atilde" unicode="&#xc3;" horiz-adv-x="579" 
d="M586 0h-144l-50 171h-211l-49 -171h-139l210 700h171zM365 286l-77 288l-78 -288h155zM409 878l63 -47c-2 -7 -75 -92 -124 -92c-25 0 -57 16 -87 31c-23 11 -43 20 -51 20c-24 0 -62 -43 -62 -43l-57 56s69 85 119 85c25 0 58 -16 88 -31c22 -11 42 -20 50 -20
c24 0 61 41 61 41z" />
    <glyph glyph-name="Ntilde" unicode="&#xd1;" horiz-adv-x="679" 
d="M608 -1h-152l-237 431v-430h-148v700h148l244 -452v452h145v-701zM456 881l63 -47c-2 -7 -75 -92 -124 -92c-25 0 -57 16 -87 31c-23 11 -43 20 -51 20c-24 0 -62 -43 -62 -43l-57 56s69 85 119 85c25 0 58 -16 88 -31c22 -11 42 -20 50 -20c24 0 61 41 61 41z" />
    <glyph glyph-name="ntilde" unicode="&#xf1;" horiz-adv-x="586" 
d="M505 0h-132v299c0 51 -19 92 -65 92c-27 0 -59 -15 -96 -46v-345h-131v500h110l21 -45c59 44 94 55 148 55c86 0 145 -56 145 -176v-334zM406 707l63 -47c-2 -7 -75 -92 -124 -92c-25 0 -57 16 -87 31c-23 11 -43 20 -51 20c-24 0 -62 -43 -62 -43l-57 56s69 85 119 85
c25 0 58 -16 88 -31c22 -11 42 -20 50 -20c24 0 61 41 61 41z" />
    <glyph glyph-name="Adieresis" unicode="&#xc4;" horiz-adv-x="579" 
d="M586 0h-144l-50 171h-211l-49 -171h-139l210 700h171zM365 286l-77 288l-78 -288h155zM120 740v131h121v-131h-121zM339 740v131h121v-131h-121z" />
    <glyph glyph-name="Edieresis" unicode="&#xcb;" horiz-adv-x="542" 
d="M488 0h-417v700h417v-115h-272v-147h247v-117h-247v-206h272v-115zM106 740v131h121v-131h-121zM325 740v131h121v-131h-121z" />
    <glyph glyph-name="Udieresis" unicode="&#xdc;" horiz-adv-x="664" 
d="M332 -6c-168 0 -261 88 -261 264v442h146v-454c0 -88 40 -137 115 -137c71 0 115 48 115 137v454h146v-442c0 -176 -93 -264 -261 -264zM163 739v131h121v-131h-121zM382 739v131h121v-131h-121z" />
    <glyph glyph-name="Odieresis" unicode="&#xd6;" horiz-adv-x="648" 
d="M323 -5c205 0 299 164 299 360c0 198 -94 355 -299 355c-203 0 -297 -157 -297 -355c0 -196 91 -360 297 -360zM325 595c100 0 152 -118 152 -235c0 -133 -45 -249 -153 -249c-104 0 -152 113 -152 244c0 118 41 240 153 240zM154 739v131h121v-131h-121zM373 739v131
h121v-131h-121z" />
    <glyph glyph-name="Otilde" unicode="&#xd5;" horiz-adv-x="648" 
d="M323 -5c205 0 299 164 299 360c0 198 -94 355 -299 355c-203 0 -297 -157 -297 -355c0 -196 91 -360 297 -360zM325 595c100 0 152 -118 152 -235c0 -133 -45 -249 -153 -249c-104 0 -152 113 -152 244c0 118 41 240 153 240zM460 875l63 -47c-2 -7 -75 -92 -124 -92
c-25 0 -57 16 -87 31c-23 11 -43 20 -51 20c-24 0 -62 -43 -62 -43l-57 56s69 85 119 85c25 0 58 -16 88 -31c22 -11 42 -20 50 -20c24 0 61 41 61 41z" />
    <glyph glyph-name="Idieresis" unicode="&#xcf;" horiz-adv-x="257" 
d="M201 0h-145v700h145v-700zM-41 740v131h121v-131h-121zM178 740v131h121v-131h-121z" />
    <glyph glyph-name="udieresis" unicode="&#xfc;" horiz-adv-x="576" 
d="M71 500h132v-306c0 -51 19 -92 65 -92c27 0 59 15 96 46v352h131v-500h-110l-21 48c-59 -44 -94 -54 -148 -54c-86 0 -145 55 -145 175v331zM116 579v131h121v-131h-121zM335 579v131h121v-131h-121z" />
    <glyph glyph-name="odieresis" unicode="&#xf6;" horiz-adv-x="527" 
d="M257 -7c-147 0 -225 98 -225 257s78 260 225 260c146 0 237 -101 237 -260s-81 -257 -237 -257zM361 251c0 94 -25 153 -98 153c-74 0 -100 -61 -100 -153s28 -151 101 -151c76 0 97 60 97 151zM96 579v131h121v-131h-121zM315 579v131h121v-131h-121z" />
    <glyph glyph-name="idieresis" unicode="&#xef;" horiz-adv-x="284" 
d="M-28 579v131h121v-131h-121zM191 579v131h121v-131h-121zM77 0v500h130v-500h-130z" />
    <glyph glyph-name="eth" unicode="&#xf0;" horiz-adv-x="573" 
d="M296 403c-76 0 -96 -53 -96 -151c0 -99 29 -153 97 -153c69 0 104 49 104 153c0 100 -31 151 -105 151zM414 686l-92 -48s104 -108 147 -169c39 -56 67 -122 67 -215c0 -159 -86 -260 -238 -260c-154 0 -235 101 -235 260s77 255 235 257l-72 72l-89 -50l-64 65l93 53
c-19 17 -43 39 -60 52l92 55l61 -57l92 48z" />
    <glyph glyph-name="otilde" unicode="&#xf5;" horiz-adv-x="527" 
d="M257 -7c156 0 237 98 237 257s-91 260 -237 260c-147 0 -225 -101 -225 -260s78 -257 225 -257zM361 251c0 -91 -21 -151 -97 -151c-73 0 -101 59 -101 151s26 153 100 153c73 0 98 -59 98 -153zM395 708l63 -47c-2 -7 -75 -92 -124 -92c-25 0 -57 16 -87 31
c-23 11 -43 20 -51 20c-24 0 -62 -43 -62 -43l-57 56s69 85 119 85c25 0 58 -16 88 -31c22 -11 42 -20 50 -20c24 0 61 41 61 41z" />
    <glyph glyph-name="edieresis" unicode="&#xeb;" horiz-adv-x="495" 
d="M445 31c-72 -28 -119 -37 -176 -37c-154 0 -235 79 -235 254c0 173 79 262 223 262c115 0 198 -70 198 -222c0 -22 -1 -52 -4 -77h-289c0 -82 50 -115 118 -115c41 0 84 8 143 24zM330 303v7c0 57 -23 102 -83 102c-61 0 -85 -53 -86 -109h169zM91 580v131h121v-131h-121
zM310 580v131h121v-131h-121z" />
    <glyph glyph-name="ecircumflex" unicode="&#xea;" horiz-adv-x="495" 
d="M445 31c-72 -28 -119 -37 -176 -37c-154 0 -235 79 -235 254c0 173 79 262 223 262c115 0 198 -70 198 -222c0 -22 -1 -52 -4 -77h-289c0 -82 50 -115 118 -115c41 0 84 8 143 24zM330 303v7c0 57 -23 102 -83 102c-61 0 -85 -53 -86 -109h169zM212 722h87l126 -90
l-44 -64l-126 65l-127 -65l-44 64z" />
    <glyph glyph-name="icircumflex" unicode="&#xee;" horiz-adv-x="284" 
d="M99 722h87l126 -90l-44 -64l-126 65l-127 -65l-44 64zM77 0v500h130v-500h-130z" />
    <glyph glyph-name="ocircumflex" unicode="&#xf4;" horiz-adv-x="527" 
d="M257 -7c-147 0 -225 98 -225 257s78 260 225 260c146 0 237 -101 237 -260s-81 -257 -237 -257zM361 251c0 94 -25 153 -98 153c-74 0 -100 -61 -100 -153s28 -151 101 -151c76 0 97 60 97 151zM216 722h87l126 -90l-44 -64l-126 65l-127 -65l-44 64z" />
    <glyph glyph-name="ucircumflex" unicode="&#xfb;" horiz-adv-x="576" 
d="M71 500h132v-306c0 -51 19 -92 65 -92c27 0 59 15 96 46v352h131v-500h-110l-21 48c-59 -44 -94 -54 -148 -54c-86 0 -145 55 -145 175v331zM244 722h87l126 -90l-44 -64l-126 65l-127 -65l-44 64z" />
    <glyph glyph-name="acircumflex" unicode="&#xe2;" 
d="M346 0l-20 50c-45 -41 -75 -57 -127 -57c-82 0 -159 62 -159 161c0 98 73 161 233 161h41c0 54 -24 95 -83 95c-38 0 -103 -8 -148 -20l-22 88c65 21 136 32 199 32c134 0 182 -67 182 -170v-340h-96zM312 219h-43c-79 0 -96 -23 -96 -60c0 -36 22 -63 54 -63
c27 0 49 16 85 54v69zM219 722h87l126 -90l-44 -64l-126 65l-127 -65l-44 64z" />
    <glyph glyph-name="atilde" unicode="&#xe3;" 
d="M346 0l-20 50c-45 -41 -75 -57 -127 -57c-82 0 -159 62 -159 161c0 98 73 161 233 161h41c0 54 -24 95 -83 95c-38 0 -103 -8 -148 -20l-22 88c65 21 136 32 199 32c134 0 182 -67 182 -170v-340h-96zM312 219h-43c-79 0 -96 -23 -96 -60c0 -36 22 -63 54 -63
c27 0 49 16 85 54v69zM392 708l63 -47c-2 -7 -75 -92 -124 -92c-25 0 -57 16 -87 31c-23 11 -43 20 -51 20c-24 0 -62 -43 -62 -43l-57 56s69 85 119 85c25 0 58 -16 88 -31c22 -11 42 -20 50 -20c24 0 61 41 61 41z" />
    <glyph glyph-name="adieresis" unicode="&#xe4;" 
d="M346 0l-20 50c-45 -41 -75 -57 -127 -57c-82 0 -159 62 -159 161c0 98 73 161 233 161h41c0 54 -24 95 -83 95c-38 0 -103 -8 -148 -20l-22 88c65 21 136 32 199 32c134 0 182 -67 182 -170v-340h-96zM312 219h-43c-79 0 -96 -23 -96 -60c0 -36 22 -63 54 -63
c27 0 49 16 85 54v69zM93 579v131h121v-131h-121zM312 579v131h121v-131h-121z" />
    <glyph glyph-name="exclamdown" unicode="&#xa1;" horiz-adv-x="266" 
d="M203 469h-130v125h130v-125zM203 -106h-130v510h130v-510z" />
    <glyph glyph-name="Icircumflex" unicode="&#xce;" horiz-adv-x="257" 
d="M201 0h-145v700h145v-700zM87 893h87l126 -90l-44 -64l-126 65l-127 -65l-44 64z" />
    <glyph glyph-name="Ocircumflex" unicode="&#xd4;" horiz-adv-x="648" 
d="M323 -5c-206 0 -297 164 -297 360c0 198 94 355 297 355c205 0 299 -157 299 -355c0 -196 -94 -360 -299 -360zM325 595c-112 0 -153 -122 -153 -240c0 -131 48 -244 152 -244c108 0 153 116 153 249c0 117 -52 235 -152 235zM281 893h87l126 -90l-44 -64l-126 65
l-127 -65l-44 64z" />
    <glyph glyph-name="Ecircumflex" unicode="&#xca;" horiz-adv-x="542" 
d="M488 0h-417v700h417v-115h-272v-147h247v-117h-247v-206h272v-115zM238 890h87l126 -90l-44 -64l-126 65l-127 -65l-44 64z" />
    <glyph glyph-name="Ucircumflex" unicode="&#xdb;" horiz-adv-x="664" 
d="M332 -6c-168 0 -261 88 -261 264v442h146v-454c0 -88 40 -137 115 -137c71 0 115 48 115 137v454h146v-442c0 -176 -93 -264 -261 -264zM290 893h87l126 -90l-44 -64l-126 65l-127 -65l-44 64z" />
    <glyph glyph-name="question" unicode="?" horiz-adv-x="463" 
d="M408 549c0 -168 -146 -169 -146 -292v-63h-124v58c0 166 145 173 145 289c0 31 -20 53 -71 53c-34 0 -83 -6 -121 -19l-21 108c51 16 107 27 155 27c114 0 183 -62 183 -161zM261 0h-125v138h125v-138z" />
    <glyph glyph-name="questiondown" unicode="&#xbf;" horiz-adv-x="463" 
d="M55 59c0 168 146 169 146 292v63h124v-58c0 -166 -145 -173 -145 -289c0 -31 20 -53 71 -53c34 0 83 6 121 19l21 -108c-51 -16 -107 -27 -155 -27c-114 0 -183 62 -183 161zM202 608h125v-138h-125v138z" />
    <glyph glyph-name="ellipsis" unicode="&#x2026;" horiz-adv-x="687" 
d="M401 0h-115v136h115v-136zM149 0h-115v136h115v-136zM149 0h-115v136h115v-136zM653 0h-115v136h115v-136z" />
    <glyph glyph-name="quotedblbase" unicode="&#x201e;" horiz-adv-x="465" 
d="M230 86l-113 -248l-96 30l88 254zM430 86l-113 -248l-96 30l88 254z" />
    <glyph glyph-name="quotesinglbase" unicode="&#x201a;" horiz-adv-x="268" 
d="M230 86l-113 -248l-96 30l88 254z" />
    <glyph glyph-name="guillemotleft" unicode="&#xab;" horiz-adv-x="511" 
d="M273 115l-96 -43l-138 224l139 226l95 -43l-98 -181zM458 125l-96 -43l-128 214l129 216l95 -43l-88 -171z" />
    <glyph glyph-name="guillemotright" unicode="&#xbb;" horiz-adv-x="511" 
d="M333 72l-96 43l98 183l-98 181l95 43l139 -226zM148 82l-96 43l88 173l-88 171l95 43l129 -216z" />
    <glyph glyph-name="logicalnot" unicode="&#xac;" horiz-adv-x="518" 
d="M487 125h-125v124h-344v105h469v-229z" />
    <glyph glyph-name="quotedblleft" unicode="&#x201c;" horiz-adv-x="466" 
d="M37 512l114 257l91 -28l-83 -266zM237 512l114 257l91 -28l-83 -266z" />
    <glyph glyph-name="quotedblright" unicode="&#x201d;" horiz-adv-x="465" 
d="M228 732l-114 -257l-91 28l83 266zM428 732l-114 -257l-91 28l83 266z" />
    <glyph glyph-name="quoteleft" unicode="&#x2018;" horiz-adv-x="268" 
d="M37 512l114 257l91 -28l-83 -266z" />
    <glyph glyph-name="quoteright" unicode="&#x2019;" horiz-adv-x="267" 
d="M228 732l-114 -257l-91 28l83 266z" />
    <glyph glyph-name="periodcentered" unicode="&#xb7;" horiz-adv-x="181" 
d="M148 231h-115v136h115v-136z" />
    <glyph glyph-name="_0158" horiz-adv-x="619" 
 />
    <glyph glyph-name="graveMAY" horiz-adv-x="438" 
d="M280 701h-111l-98 124h134z" />
    <glyph glyph-name="acuteMAY" horiz-adv-x="438" 
d="M158 701l75 124h134l-98 -124h-111z" />
    <glyph glyph-name="Ydieresis" unicode="&#x178;" horiz-adv-x="552" 
d="M559 700l-215 -405v-295h-145v295l-206 405h153l127 -274l135 274h151zM104 801v131h121v-131h-121zM323 801v131h121v-131h-121z" />
    <glyph glyph-name="Egrave" unicode="&#xc8;" horiz-adv-x="542" 
d="M488 0h-417v700h417v-115h-272v-147h247v-117h-247v-206h272v-115zM355 753h-111l-98 124h134z" />
    <glyph glyph-name="minus" unicode="&#x2212;" horiz-adv-x="570" 
d="M501 255h-432v105h432v-105z" />
    <glyph glyph-name="bullet" unicode="&#x2022;" horiz-adv-x="470" 
d="M377 265c0 -84 -66 -149 -149 -149s-149 65 -149 149c0 83 66 149 149 149s149 -66 149 -149z" />
    <glyph glyph-name="twosuperior" unicode="&#xb2;" horiz-adv-x="436" 
d="M350 400l-9 -77h-250v62c92 84 145 133 145 178c0 19 -20 26 -41 26c-48 0 -92 -14 -92 -14l7 70s54 17 106 17c79 0 118 -32 118 -79c0 -59 -29 -106 -108 -183h124z" />
    <glyph glyph-name="braceleft" unicode="{" horiz-adv-x="356" 
d="M97 145c0 67 -23 103 -77 103v106c62 0 77 34 77 97v150c0 146 80 200 208 200h31v-104h-30c-64 0 -80 -28 -80 -106v-153c0 -90 -11 -116 -76 -134c61 -13 76 -52 76 -132v-151c0 -96 23 -118 83 -118h27v-104h-33c-124 0 -206 48 -206 196v150z" />
    <glyph glyph-name="braceright" unicode="}" horiz-adv-x="356" 
d="M259 455c0 -67 23 -103 77 -103v-106c-62 0 -77 -34 -77 -97v-150c0 -146 -80 -200 -208 -200h-31v104h30c64 0 80 28 80 106v153c0 90 11 116 76 134c-61 13 -76 52 -76 132v151c0 96 -23 118 -83 118h-27v104h33c124 0 206 -48 206 -196v-150z" />
    <glyph glyph-name="Eth" unicode="&#xd0;" horiz-adv-x="676" 
d="M646 375c0 -225 -141 -375 -360 -375h-186v297h-84v105h84v298h217c201 0 329 -137 329 -325zM495 383c0 131 -84 202 -174 202h-80v-183h155v-105h-155v-182h54c107 0 200 94 200 268z" />
    <glyph glyph-name="Delta" unicode="&#x394;" horiz-adv-x="613" 
d="M593 0h-573l210 700h151zM426 107l-121 447l-130 -447h251z" />
    <glyph glyph-name="Delta" unicode="&#x2206;" horiz-adv-x="613" 
d="M593 0h-573l210 700h151zM426 107l-121 447l-130 -447h251z" />
    <glyph glyph-name="summation" unicode="&#x2211;" horiz-adv-x="460" 
d="M389 0h-402v111l194 228l-184 251v110h381v-115h-212l169 -242l-183 -228h237v-115z" />
    <glyph glyph-name="registered" unicode="&#xae;" horiz-adv-x="551" 
d="M270 642c-90 0 -129 -90 -129 -208c0 -116 52 -200 130 -200c92 0 143 77 143 200c0 121 -55 208 -144 208zM272 164c-142 0 -216 107 -216 273c0 168 69 275 212 275c142 0 226 -107 226 -275c0 -166 -80 -273 -222 -273zM273 426h-12v-121h-75v279h86
c63 0 95 -26 95 -72c0 -30 -17 -62 -38 -65c21 -7 27 -12 38 -48l14 -94h-66l-14 79c-4 25 -12 42 -28 42zM273 528h-12v-43h11c16 0 25 10 25 27c0 12 -9 16 -24 16z" />
    <glyph glyph-name="copyright" unicode="&#xa9;" horiz-adv-x="551" 
d="M351 192l15 -69c-30 -9 -55 -14 -85 -14c-89 0 -130 58 -130 147c0 90 45 140 133 140c39 0 65 -12 85 -18l-26 -65c-19 9 -34 9 -52 9c-37 0 -49 -16 -49 -63c0 -50 15 -77 48 -77c25 0 38 2 61 10zM270 459c-97 0 -139 -90 -139 -208c0 -116 56 -200 140 -200
c97 0 148 77 148 200c0 121 -54 208 -149 208zM272 -19c-149 0 -226 107 -226 273c0 168 72 275 222 275c148 0 236 -107 236 -275c0 -166 -84 -273 -232 -273z" />
    <glyph glyph-name="product" unicode="&#x220f;" horiz-adv-x="521" 
d="M132 0h-145v700h463v-700h-145v585h-173v-585z" />
    <glyph glyph-name="paragraph" unicode="&#xb6;" horiz-adv-x="599" 
d="M328 -203h-105v561c-107 0 -173 79 -173 173c0 84 56 179 219 179h285v-110h-65v-803h-105v803h-56v-803z" />
    <glyph glyph-name="AE" unicode="&#xc6;" horiz-adv-x="852" 
d="M797 0h-407v171h-185l-73 -171h-139l298 700h506v-115h-272v-147h247v-117h-247v-206h272v-115zM380 584l-130 -298h140v298h-10zM798 0h-417v700h417v-115h-272v-147h247v-117h-247v-206h272v-115z" />
    <glyph glyph-name="Scaron" unicode="&#x160;" horiz-adv-x="551" 
d="M463 675l-24 -117c3 0 -95 32 -177 32c-44 0 -68 -22 -68 -65c0 -108 320 -90 320 -311c0 -136 -91 -220 -254 -220c-89 0 -178 29 -225 55l43 107s92 -42 182 -42c67 0 109 32 109 89c0 118 -320 98 -320 319c0 123 83 188 213 188c67 0 137 -14 201 -35zM314 773h-87
l-126 90l44 64l126 -65l127 65l44 -64z" />
    <glyph glyph-name="scaron" unicode="&#x161;" horiz-adv-x="445" 
d="M201 99c46 0 75 18 75 52c0 101 -228 45 -228 207c0 97 63 152 171 152c70 0 121 -16 152 -28l-21 -104c1 0 -66 27 -129 27c-34 0 -44 -11 -44 -30c0 -71 228 -33 228 -210c0 -105 -73 -171 -200 -171c-64 0 -131 23 -165 43l28 96s67 -34 133 -34zM264 589h-87l-126 90
l44 64l126 -65l127 65l44 -64z" />
    <glyph glyph-name="ae" unicode="&#xe6;" horiz-adv-x="778" 
d="M444 131c-55 -80 -139 -138 -245 -138c-82 0 -159 62 -159 161c0 98 79 161 255 161h31c0 54 -17 95 -65 95c-47 0 -124 -12 -178 -30l-22 88c64 28 133 42 195 42c146 0 188 -67 188 -170v-209zM324 219h-33c-96 0 -118 -23 -118 -60c0 -36 22 -63 54 -63
c30 0 57 16 97 54v69zM718 31c-68 -28 -112 -37 -166 -37c-147 0 -225 79 -225 254c0 173 75 262 213 262c109 0 188 -70 188 -222c0 -22 -1 -52 -4 -77h-269c0 -82 46 -115 108 -115c38 0 78 8 133 24zM603 303v7c0 57 -20 102 -73 102c-54 0 -75 -53 -76 -109h149z" />
    <glyph glyph-name="onehalf" unicode="&#xbd;" horiz-adv-x="816" 
d="M66 316v78h70v176l-73 -47l-30 76l103 63h90v-268h70v-78h-230zM676 688l-388 -688h-138l388 688h138zM772 77l-9 -77h-250v62c92 84 145 133 145 178c0 19 -20 26 -41 26c-48 0 -92 -14 -92 -14l7 70s54 17 106 17c79 0 118 -32 118 -79c0 -59 -29 -106 -108 -183h124z
" />
    <glyph glyph-name="notequal" unicode="&#x2260;" horiz-adv-x="580" 
d="M515 153h-230l-53 -153h-110l53 153h-110v105h147l25 73h-172v105h209l54 153h109l-53 -153h131v-105h-168l-25 -73h193v-105z" />
    <glyph glyph-name="Acircumflex" unicode="&#xc2;" horiz-adv-x="579" 
d="M586 0h-144l-50 171h-211l-49 -171h-139l210 700h171zM365 286l-77 288l-78 -288h155zM248 890h87l126 -90l-44 -64l-126 65l-127 -65l-44 64z" />
    <glyph glyph-name="underscore" unicode="_" horiz-adv-x="430" 
d="M430 -236h-430v105h430v-105z" />
    <glyph glyph-name="endash" unicode="&#x2013;" horiz-adv-x="500" 
d="M500 237h-500v105h500v-105z" />
    <glyph glyph-name="emdash" unicode="&#x2014;" horiz-adv-x="800" 
d="M800 237h-800v105h800v-105z" />
    <glyph glyph-name="Lslash" unicode="&#x141;" horiz-adv-x="473" 
d="M486 0h-415v304l-48 -29v112l48 28v285h145v-211l110 66v-112l-110 -64v-264h270v-115z" />
    <glyph glyph-name="lslash" unicode="&#x142;" horiz-adv-x="312" 
d="M221 0h-130v388l-71 -43v112l71 42v201h130v-157l102 61v-112l-102 -60v-432z" />
    <glyph glyph-name="Thorn" unicode="&#xde;" horiz-adv-x="546" 
d="M214 700v-110h75c167 -1 233 -73 233 -214c0 -153 -101 -217 -256 -217h-52v-159h-145v700h145zM255 476h39h-80v-203h36c83 0 127 24 127 101c0 70 -36 102 -122 102z" />
    <glyph glyph-name="degree" unicode="&#xb0;" horiz-adv-x="452" 
d="M392 610c0 -92 -75 -166 -167 -166c-94 0 -167 73 -167 166c0 92 75 166 167 166c93 0 167 -73 167 -166zM301 612c0 44 -35 80 -77 80s-77 -36 -77 -80c0 -45 35 -81 77 -81s77 36 77 81z" />
    <glyph glyph-name="multiply" unicode="&#xd7;" horiz-adv-x="608" 
d="M555 463l-167 -167l165 -166l-88 -88l-165 166l-159 -158l-80 81l158 158l-164 165l88 88l164 -165l167 167z" />
    <glyph glyph-name="brokenbar" unicode="&#xa6;" horiz-adv-x="291" 
d="M203 413h-115v387h115v-387zM88 201h115v-404h-115v404z" />
    <glyph glyph-name="ogonek" unicode="&#x2db;" horiz-adv-x="301" 
d="M40 -118c0 52 35 92 76 118h123c-64 -31 -88 -59 -88 -91c0 -17 7 -30 30 -30c30 0 47 8 75 16l18 -64c-29 -13 -82 -25 -123 -25c-68 0 -111 25 -111 76z" />
    <glyph glyph-name="oe" unicode="&#x153;" horiz-adv-x="861" 
d="M252 -7c-140 0 -215 98 -215 257s75 260 215 260c64 0 117 -21 155 -59c36 39 87 59 152 59c109 0 188 -70 188 -222c0 -22 -1 -52 -4 -77h-269c0 -82 46 -115 108 -115c38 0 78 8 133 24l22 -89c-68 -28 -112 -37 -166 -37c-70 0 -124 18 -162 55
c-37 -36 -90 -56 -157 -56zM346 251c0 94 -22 153 -88 153c-67 0 -90 -61 -90 -153s25 -151 91 -151c68 0 87 60 87 151zM622 303v7c0 57 -20 102 -73 102c-54 0 -75 -53 -76 -109h149z" />
    <glyph glyph-name="Oslash" unicode="&#xd8;" horiz-adv-x="648" 
d="M323 -5c-26 0 -50 3 -72 7l-41 -111h-108l55 151c-90 63 -131 181 -131 313c0 198 94 355 297 355c27 0 53 -3 77 -8l36 98h109l-52 -140c88 -61 129 -174 129 -305c0 -196 -94 -360 -299 -360zM325 599c-115 0 -157 -124 -157 -244c0 -70 13 -135 42 -181l153 419
c-12 4 -25 6 -38 6zM324 107c111 0 157 118 157 253c0 61 -14 122 -41 167l-153 -415c11 -4 24 -5 37 -5z" />
    <glyph glyph-name="lessequal" unicode="&#x2264;" horiz-adv-x="522" 
d="M442 -1h-412v105h412v-105zM442 118l-412 204v97l412 205v-120l-279 -133l279 -135v-118z" />
    <glyph glyph-name="greaterequal" unicode="&#x2265;" horiz-adv-x="522" 
d="M492 -1h-412v105h412v-105zM80 627l412 -204v-97l-412 -205v120l279 133l-279 135v118z" />
    <glyph glyph-name="yen" unicode="&#xa5;" horiz-adv-x="610" 
d="M546 216h-173v-47h173v-105h-173v-64h-145v64h-151v105h151v47h-151v105h138l-193 379h153l127 -274l135 274h151l-201 -379h159v-105z" />
    <glyph glyph-name="plusminus" unicode="&#xb1;" 
d="M468 337h-163v-173h-115v173h-154v105h154v180h115v-180h163v-105zM468 -1h-432v105h432v-105z" />
    <glyph glyph-name="mu" unicode="&#xb5;" horiz-adv-x="558" 
d="M82 500h132v-306c0 -51 16 -92 55 -92c24 0 53 15 86 46v352h131v-500h-110l-21 48c-55 -44 -88 -54 -141 -54v-230h-132v736z" />
    <glyph glyph-name="mu" unicode="&#x3bc;" horiz-adv-x="558" 
d="M82 500h132v-306c0 -51 16 -92 55 -92c24 0 53 15 86 46v352h131v-500h-110l-21 48c-55 -44 -88 -54 -141 -54v-230h-132v736z" />
    <glyph glyph-name="pi" unicode="&#x3c0;" horiz-adv-x="583" 
d="M539 544v-105h-86v-439h-114v439h-112v-439h-115v439h-82v105h509z" />
    <glyph glyph-name="radical" unicode="&#x221a;" horiz-adv-x="615" 
d="M196 0l-89 385h-106v115h205l76 -375l175 675h142l-238 -800h-165z" />
    <glyph glyph-name="daggerdbl" unicode="&#x2021;" horiz-adv-x="520" 
d="M317 183v-183h-125v183h-147v105h147v182h-147v105h147v175h125v-175h158v-105h-158v-182h158v-105h-158z" />
    <glyph glyph-name="fl" unicode="&#xfb02;" horiz-adv-x="570" 
d="M350 700l129 11v-711h-130v607c-29 4 -39 6 -59 6c-43 0 -69 -11 -69 -61v-52h82v-107h-82v-393h-129v393h-57v107h58v76c0 89 58 134 129 134c67 0 100 -5 128 -10z" />
    <glyph glyph-name="fi" unicode="&#xfb01;" horiz-adv-x="556" 
d="M479 0h-130v393h-128v-393h-129v393h-57v107h58v76c0 89 58 134 129 134c62 0 92 -3 118 -9l-17 -93c-20 4 -27 5 -43 5c-37 0 -59 -11 -59 -61v-52h258v-500z" />
    <glyph glyph-name="trademark" unicode="&#x2122;" horiz-adv-x="686" 
d="M636 418h-87v128c-18 -25 -40 -50 -56 -73h-28l-47 68v-123h-86v282h81l71 -106l74 106h78v-282zM110 418v204h-72v78h243v-78h-76v-204h-95z" />
    <glyph glyph-name="Zcaron" unicode="&#x17d;" horiz-adv-x="508" 
d="M499 0h-479v112l290 473h-291v115h449v-107l-287 -477h318v-116zM288 773h-87l-126 90l44 64l126 -65l127 65l44 -64z" />
    <glyph glyph-name="zcaron" unicode="&#x17e;" horiz-adv-x="412" 
d="M39 500h327v-100l-193 -295h205v-105h-339v100l192 295h-192v105zM244 589h-87l-126 90l44 64l126 -65l127 65l44 -64z" />
    <glyph glyph-name="divide" unicode="&#xf7;" horiz-adv-x="524" 
d="M325 0h-115v136h115v-136zM325 364h-115v136h115v-136zM478 208h-432v105h432v-105z" />
    <glyph glyph-name="OE" unicode="&#x152;" horiz-adv-x="873" 
d="M819 0l-496 1c-206 0 -297 158 -297 354c0 198 94 345 297 345h496v-116h-272v-146h247v-117h-247v-200h272v-121zM324 120h77v464h-76c-112 0 -153 -111 -153 -229c0 -129 48 -235 152 -235z" />
    <glyph glyph-name="fraction" unicode="&#x2044;" horiz-adv-x="406" 
d="M496 688l-388 -688h-138l388 688h138z" />
    <glyph glyph-name="section" unicode="&#xa7;" horiz-adv-x="604" 
d="M246 386c-31 -26 -45 -48 -45 -74c0 -59 107 -70 172 -107c15 17 26 25 26 59c0 67 -88 82 -153 122zM137 -9c45 -26 104 -43 152 -43c51 0 76 21 76 54c0 148 -308 117 -309 310c0 62 41 115 109 165c-16 22 -27 50 -27 85c0 102 64 148 195 148c82 0 152 -27 152 -27
l-17 -102s-67 24 -137 24c-21 0 -47 -12 -47 -46c0 -111 259 -122 260 -293c0 -63 -22 -99 -86 -149c32 -28 52 -68 52 -118c0 -87 -82 -156 -230 -156c-59 0 -134 23 -172 43z" />
    <glyph glyph-name="Ccedilla" unicode="&#xc7;" horiz-adv-x="584" 
d="M30 353c0 216 119 356 327 356c66 0 107 -8 167 -29l-28 -112c-49 21 -109 26 -144 26c-112 0 -177 -93 -177 -230c0 -154 59 -255 168 -255c70 0 134 26 171 39l30 -102c-28 -16 -77 -40 -145 -48c-1 -64 -12 -91 -63 -175l-89 31c32 65 41 83 41 144
c-170 24 -258 159 -258 355z" />
    <glyph glyph-name="ccedilla" unicode="&#xe7;" horiz-adv-x="433" 
d="M391 109l16 -90c-37 -11 -66 -19 -95 -22c-1 -64 -12 -90 -63 -174l-89 31c32 65 41 83 41 146c-121 23 -166 112 -166 250c0 161 76 260 223 260c63 0 112 -14 146 -24l-47 -91c-29 9 -47 17 -96 17c-88 0 -96 -88 -96 -158c0 -122 45 -158 126 -158c34 0 68 4 100 13z
" />
    <glyph glyph-name="guilsinglleft" unicode="&#x2039;" horiz-adv-x="330" 
d="M273 115l-96 -43l-138 224l139 226l95 -43l-98 -181z" />
    <glyph glyph-name="guilsinglright" unicode="&#x203a;" horiz-adv-x="330" 
d="M69 479l96 43l138 -224l-139 -226l-95 43l98 181z" />
    <glyph glyph-name="lozenge" unicode="&#x25ca;" horiz-adv-x="543" 
d="M523 353l-202 -353h-101l-200 351l202 349h101zM381 351l-110 206l-109 -204l110 -217z" />
    <glyph glyph-name="dagger" unicode="&#x2020;" horiz-adv-x="502" 
d="M317 470v-470h-125v470h-147v105h147v175h125v-175h158v-105h-158z" />
    <glyph glyph-name="asciitilde" unicode="~" horiz-adv-x="527" 
d="M493 283c-28 -53 -80 -82 -137 -82c-89 0 -115 59 -190 59c-26 0 -54 -17 -77 -39l-45 82c26 39 74 73 127 73c89 0 115 -60 190 -60c26 0 54 16 77 36z" />
    <glyph glyph-name="sterling" unicode="&#xa3;" horiz-adv-x="540" 
d="M233 415h157v-110h-157v-190h262v-115h-387v305h-68v110h68v181c0 89 80 115 153 115c40 0 69 -8 104 -19l-21 -109c-30 11 -48 11 -69 11c-25 0 -42 -24 -42 -70v-109z" />
    <glyph glyph-name="ring" unicode="&#x2da;" horiz-adv-x="398" 
d="M198 772c84 0 123 -49 123 -109c0 -66 -37 -111 -122 -111s-122 45 -122 111c0 60 37 109 121 109zM199 703c-27 0 -36 -17 -36 -40c0 -22 6 -40 36 -40c32 0 38 18 38 40c0 23 -9 40 -38 40z" />
    <glyph glyph-name="aring" unicode="&#xe5;" 
d="M346 0l-20 50c-45 -41 -75 -57 -127 -57c-82 0 -159 62 -159 161c0 98 73 161 233 161h41c0 54 -24 95 -83 95c-38 0 -103 -8 -148 -20l-22 88c65 21 136 32 199 32c134 0 182 -67 182 -170v-340h-96zM312 219h-43c-79 0 -96 -23 -96 -60c0 -36 22 -63 54 -63
c27 0 49 16 85 54v69zM263 772c84 0 123 -49 123 -109c0 -66 -37 -111 -122 -111s-122 45 -122 111c0 60 37 109 121 109zM264 703c-27 0 -36 -17 -36 -40c0 -22 6 -40 36 -40c32 0 38 18 38 40c0 23 -9 40 -38 40z" />
    <glyph glyph-name="Aring" unicode="&#xc5;" horiz-adv-x="579" 
d="M586 0h-144l-50 171h-211l-49 -171h-139l210 700h171zM365 286l-77 288l-78 -288h155zM289 972c84 0 123 -49 123 -109c0 -66 -37 -111 -122 -111s-122 45 -122 111c0 60 37 109 121 109zM290 903c-27 0 -36 -17 -36 -40c0 -22 6 -40 36 -40c32 0 38 18 38 40
c0 23 -9 40 -38 40z" />
    <glyph glyph-name="perthousand" unicode="&#x2030;" horiz-adv-x="1059" 
d="M546 246c-27 0 -41 -37 -41 -82c0 -44 11 -80 40 -80c32 0 43 36 43 80c0 45 -13 82 -42 82zM545 336c117 0 148 -86 148 -173c0 -98 -39 -169 -150 -169c-101 0 -143 71 -143 169c0 87 39 173 145 173zM176 606c-27 0 -41 -37 -41 -82c0 -44 11 -80 40 -80
c32 0 43 36 43 80c0 45 -13 82 -42 82zM175 696c117 0 148 -86 148 -173c0 -98 -39 -169 -150 -169c-101 0 -143 71 -143 169c0 87 39 173 145 173zM868 246c-27 0 -41 -37 -41 -82c0 -44 11 -80 40 -80c32 0 43 36 43 80c0 45 -13 82 -42 82zM867 336
c117 0 148 -86 148 -173c0 -98 -39 -169 -150 -169c-101 0 -143 71 -143 169c0 87 39 173 145 173zM616 688l-388 -688h-138l388 688h138z" />
    <glyph glyph-name="florin" unicode="&#x192;" horiz-adv-x="310" 
d="M15 442l20 156c11 89 92 114 161 114c34 0 82 -4 112 -12l-26 -104c-21 3 -50 5 -70 5s-43 -12 -45 -37l-18 -122h112l-12 -100h-112l-59 -485l-138 -10l62 495h-77l12 100h78z" />
    <glyph glyph-name="caron" unicode="&#x2c7;" horiz-adv-x="491" 
d="M288 676h-87l-126 90l44 64l126 -65l127 65l44 -64z" />
    <glyph glyph-name="hungarumlaut" unicode="&#x2dd;" horiz-adv-x="499" 
d="M159 566l-98 26l113 141l115 -35zM324 566l-98 26l113 141l115 -35z" />
    <glyph glyph-name="cedilla" unicode="&#xb8;" horiz-adv-x="377" 
d="M292 0c0 -66 -11 -92 -63 -177l-89 31c32 65 41 83 41 146h111z" />
    <glyph glyph-name="dotaccent" unicode="&#x2d9;" horiz-adv-x="245" 
d="M175 705h-105v116h105v-116z" />
    <glyph glyph-name="breve" unicode="&#x2d8;" horiz-adv-x="400" 
d="M200 63c32 0 50 13 50 52h84v-13c0 -79 -45 -127 -134 -127s-134 48 -134 127v13h84c0 -39 17 -52 50 -52z" />
    <glyph glyph-name="approxequal" unicode="&#x2248;" horiz-adv-x="569" 
d="M513 403c-26 -59 -74 -92 -127 -92c-94 0 -121 59 -200 59c-29 0 -61 -17 -87 -39l-45 82c28 39 80 73 137 73c94 0 121 -60 200 -60c26 0 54 16 77 36zM513 193c-26 -59 -74 -92 -127 -92c-94 0 -121 59 -200 59c-29 0 -61 -17 -87 -39l-45 82c28 39 80 73 137 73
c94 0 121 -60 200 -60c26 0 54 16 77 36z" />
    <glyph glyph-name="ordfeminine" unicode="&#xaa;" horiz-adv-x="363" 
d="M180 560l26 -1c0 56 -8 63 -46 63c-43 0 -77 -7 -98 -14l-9 74c44 14 82 18 119 18c90 0 133 -37 133 -112v-227h-78l-16 18c-29 -18 -46 -21 -70 -21c-67 0 -104 39 -104 95c0 68 43 107 143 107zM203 485h-33c-27 0 -34 -8 -34 -29c0 -12 6 -21 16 -21c16 0 32 4 51 15
v35zM308 234h-269v84h269v-84z" />
    <glyph glyph-name="ordmasculine" unicode="&#xba;" horiz-adv-x="370" 
d="M311 234h-259v84h259v-84zM182 620c-27 0 -41 -41 -41 -92c0 -50 11 -90 40 -90c32 0 43 40 43 90c0 51 -13 92 -42 92zM181 700c113 0 143 -86 143 -173c0 -98 -38 -169 -145 -169c-97 0 -138 71 -138 169c0 87 38 173 140 173z" />
    <glyph glyph-name="onequarter" unicode="&#xbc;" horiz-adv-x="884" 
d="M609 346h99l-115 -215h79v105h91v-106h48v-79h-48v-51h-91v51h-183v71zM66 316v78h70v176l-73 -47l-30 76l103 63h90v-268h70v-78h-230zM676 688l-388 -688h-138l388 688h138z" />
    <glyph glyph-name="onesuperior" unicode="&#xb9;" horiz-adv-x="378" 
d="M66 316v78h70v176l-73 -47l-30 76l103 63h90v-268h70v-78h-230z" />
    <glyph glyph-name="threequarters" unicode="&#xbe;" horiz-adv-x="886" 
d="M609 346h99l-115 -215h79v105h91v-106h48v-79h-48v-51h-91v51h-183v71zM676 688l-388 -688h-138l388 688h138zM117 525h51c36 0 56 12 56 32c0 22 -13 27 -50 27c-44 0 -81 -27 -81 -27l-12 76s46 29 100 29c91 0 131 -38 131 -93c0 -36 -21 -65 -50 -71
c35 -5 62 -34 62 -74c0 -66 -55 -106 -147 -106c-63 0 -105 29 -105 29l15 73s33 -22 82 -22c35 0 64 10 64 31c0 17 -30 23 -67 23h-49v73z" />
    <glyph glyph-name="threesuperior" unicode="&#xb3;" horiz-adv-x="425" 
d="M131 525h51c36 0 56 12 56 32c0 22 -13 27 -50 27c-44 0 -81 -27 -81 -27l-12 76s46 29 100 29c91 0 131 -38 131 -93c0 -36 -21 -65 -50 -71c35 -5 62 -34 62 -74c0 -66 -55 -106 -147 -106c-63 0 -105 29 -105 29l15 73s33 -22 82 -22c35 0 64 10 64 31
c0 17 -30 23 -67 23h-49v73z" />
    <glyph glyph-name="partialdiff" unicode="&#x2202;" horiz-adv-x="508" 
d="M109 620l36 118c207 -41 338 -206 338 -424c0 -196 -76 -320 -258 -320c-137 0 -238 76 -238 230c0 132 98 224 248 224c30 0 55 -3 85 -7c0 2 -1 4 -1 6c-19 77 -125 164 -210 173zM338 259c0 24 -1 43 -4 64c-24 4 -62 10 -95 10c-64 0 -117 -39 -117 -110
c0 -62 36 -108 103 -108c62 0 113 40 113 144z" />
    <glyph glyph-name="integral" unicode="&#x222b;" horiz-adv-x="352" 
d="M96 -43l1 693c0 110 86 154 164 154c36 0 56 -3 89 -11l-12 -99h-63c-21 0 -34 -12 -34 -48v-693c0 -110 -88 -154 -165 -154c-36 0 -56 3 -89 11l12 99h63c21 0 34 12 34 48z" />
    <glyph glyph-name="oslash" unicode="&#xf8;" horiz-adv-x="527" 
d="M257 -7c-44 0 -82 8 -113 25l-50 -61l-72 64l51 62c-27 42 -41 99 -41 167c0 159 78 260 225 260c53 0 99 -14 136 -39l60 74l77 -58l-72 -87c23 -41 36 -92 36 -150c0 -159 -81 -257 -237 -257zM263 408c-77 0 -104 -63 -104 -157c0 -23 1 -44 5 -62l162 197
c-16 14 -36 22 -63 22zM365 251c0 13 -1 25 -2 37l-148 -181c13 -7 29 -11 49 -11c79 0 101 62 101 155z" />
    <glyph glyph-name="Omega" unicode="&#x3a9;" horiz-adv-x="738" 
d="M578 115h108v-115h-285v115c100 37 113 143 113 245c0 117 -52 235 -152 235c-112 0 -153 -122 -153 -240c0 -104 31 -227 123 -240v-115h-285v115h93c-52 56 -77 142 -77 240c0 198 94 355 297 355c205 0 299 -157 299 -355c0 -99 -26 -184 -81 -240z" />
    <glyph glyph-name="Omega" unicode="&#x2126;" horiz-adv-x="738" 
d="M578 115h108v-115h-285v115c100 37 113 143 113 245c0 117 -52 235 -152 235c-112 0 -153 -122 -153 -240c0 -104 31 -227 123 -240v-115h-285v115h93c-52 56 -77 142 -77 240c0 198 94 355 297 355c205 0 299 -157 299 -355c0 -99 -26 -184 -81 -240z" />
    <glyph glyph-name="cent" unicode="&#xa2;" horiz-adv-x="381" 
d="M325 213l23 -103c-37 -12 -65 -18 -105 -18v-92h-105v94c-79 25 -114 105 -114 212c0 106 35 180 114 203v97h105v-96c43 0 81 -11 106 -19l-31 -100c-27 9 -56 13 -83 13c-70 0 -96 -25 -96 -98c0 -75 22 -108 88 -108c36 0 64 6 98 15z" />
    <glyph glyph-name="infinity" unicode="&#x221e;" horiz-adv-x="892" 
d="M450 368c57 46 126 89 207 89c106 0 182 -59 182 -158c0 -102 -82 -166 -187 -166c-79 0 -149 42 -210 91c-58 -49 -127 -91 -207 -91c-106 0 -182 57 -182 158c0 102 82 166 188 166c80 0 150 -45 209 -89zM359 294c-40 37 -81 73 -125 73c-47 0 -76 -29 -76 -70
c0 -46 28 -71 80 -71c43 0 82 31 121 68zM527 294c39 -37 78 -68 121 -68c45 0 70 25 70 71c0 41 -25 70 -66 70c-44 0 -85 -36 -125 -73z" />
    <glyph glyph-name="at" unicode="@" horiz-adv-x="907" 
d="M500 216l33 178c-8 0 -20 17 -53 17c-83 0 -128 -100 -128 -186c0 -43 26 -50 48 -50c38 0 60 14 100 41zM505 81l-8 36c-23 -16 -58 -41 -109 -41c-95 0 -138 62 -138 141c0 209 134 298 224 298c58 0 82 -26 98 -36l16 25h71l-63 -329c73 0 139 49 139 223
c0 125 -71 207 -259 207c-211 0 -300 -129 -300 -373c0 -172 66 -249 226 -249h171l4 -94c-53 -5 -130 -8 -179 -8c-219 0 -332 106 -332 328c0 305 116 501 411 501c293 0 363 -155 363 -316c0 -246 -132 -313 -335 -313z" />
    <glyph glyph-name="dotlessi" unicode="&#x131;" horiz-adv-x="284" 
d="M77 0v500h130v-500h-130z" />
    <glyph glyph-name="germandbls" unicode="&#xdf;" horiz-adv-x="568" 
d="M534 198c0 -132 -94 -204 -260 -204c-13 0 -23 2 -32 5v103c109 0 157 37 157 107c0 50 -37 109 -117 109h-28v114h27c43 0 90 40 90 96c0 44 -27 77 -75 77c-90 0 -100 -43 -100 -107v-498h-125v532c0 123 64 178 212 178c152 0 223 -87 223 -179
c0 -89 -38 -139 -103 -149c73 -11 131 -79 131 -184z" />
    <glyph glyph-name="Euro" unicode="&#x20ac;" horiz-adv-x="630" 
d="M224 330h217v-105h-210c21 -74 77 -116 160 -116c70 0 133 24 171 39l40 -102c-37 -20 -107 -52 -208 -52c-174 0 -280 93 -310 231h-63v105h57c0 5 -1 26 -1 32s1 9 2 14h-58v105h68c36 141 148 229 317 229c69 0 112 -9 176 -30l-38 -112c-50 21 -110 27 -145 27
c-86 0 -141 -44 -164 -114h206v-106h-216c-1 -8 -2 -9 -2 -18s0 -17 1 -27z" />
    <glyph glyph-name="thorn" unicode="&#xfe;" horiz-adv-x="530" 
d="M71 700h130v-236c52 31 90 46 133 46c94 0 160 -86 160 -252c0 -176 -80 -258 -179 -258c-41 0 -72 7 -114 34v-270h-130v936zM366 255c0 93 -25 139 -74 139c-24 0 -56 -12 -91 -35v-203c34 -29 62 -45 87 -45c47 0 78 45 78 144z" />
    <glyph glyph-name="macron" unicode="&#xaf;" horiz-adv-x="497" 
d="M68 594v105h357v-105h-357z" />
    <glyph glyph-name="arrowleft" unicode="&#x2190;" horiz-adv-x="745" 
d="M305 44l-278 275l275 259l83 -83l-132 -123h465v-115h-465l136 -131z" />
    <glyph glyph-name="arrowright" unicode="&#x2192;" horiz-adv-x="745" 
d="M718 319l-278 -275l-84 82l136 131h-465v115h465l-132 123l83 83z" />
    <glyph glyph-name="flecha0" horiz-adv-x="464" 
d="M384 -79l-364 366l364 366v-732z" />
    <glyph glyph-name="flecha01" unicode="&#x25b7;" horiz-adv-x="665" 
d="M80 -79v732l585 -366zM195 136l262 151l-262 151v-302z" />
    <glyph glyph-name="flecha02" horiz-adv-x="1016" 
d="M80 -79v732l936 -366zM195 94l524 193l-524 193v-386z" />
    <glyph glyph-name="Crculo0" horiz-adv-x="630" 
d="M247 159v277h131v-277h-131zM312 -5c-206 0 -297 164 -297 360c0 198 94 355 297 355c205 0 299 -157 299 -355c0 -196 -94 -360 -299 -360zM314 605c-119 0 -163 -97 -163 -250c0 -166 51 -254 162 -254c115 0 163 91 163 259c0 152 -55 245 -162 245zM380 565v-104
h-135v104h135z" />
    <glyph glyph-name="arrowup" unicode="&#x2191;" horiz-adv-x="704" 
d="M85 345l275 278l259 -275l-83 -83l-123 132v-425h-115v425l-131 -136z" />
    <glyph glyph-name="arrowdown" unicode="&#x2193;" horiz-adv-x="704" 
d="M619 224l-275 -278l-259 275l83 83l123 -132v425h115v-425l131 136z" />
    <glyph glyph-name="uni00A0" unicode="&#xa0;" horiz-adv-x="400" 
 />
    <glyph glyph-name="hbar" unicode="&#x127;" horiz-adv-x="556" 
d="M-14 568v89h95v43h130v-43h132v-89h-132v-113c59 44 94 55 148 55c86 0 145 -56 145 -176v-334h-130v299c0 51 -19 92 -65 92c-27 0 -61 -15 -98 -46v-345h-130v568h-95z" />
    <glyph glyph-name="Itilde" unicode="&#x128;" horiz-adv-x="257" 
d="M201 0h-145v700h145v-700zM258 886l63 -47c-2 -7 -75 -92 -124 -92c-25 0 -57 16 -87 31c-23 11 -43 20 -51 20c-24 0 -62 -43 -62 -43l-57 56s69 85 119 85c25 0 58 -16 88 -31c22 -11 42 -20 50 -20c24 0 61 41 61 41z" />
    <glyph glyph-name="itilde" unicode="&#x129;" horiz-adv-x="228" 
d="M50 0v500h130v-500h-130zM244 715l63 -47c-2 -7 -75 -92 -124 -92c-25 0 -57 16 -87 31c-23 11 -43 20 -51 20c-24 0 -62 -43 -62 -43l-57 56s69 85 119 85c25 0 58 -16 88 -31c22 -11 42 -20 50 -20c24 0 61 41 61 41z" />
    <glyph glyph-name="ij" unicode="&#x133;" horiz-adv-x="560" 
d="M207 575h-130v125h130v-125zM207 0h-130v500h130v-500zM314 -176c33 43 41 96 41 170v506h128v-482c0 -127 -42 -201 -92 -254zM484 575h-130v125h130v-125z" />
    <glyph glyph-name="Jcircumflex" unicode="&#x134;" horiz-adv-x="343" 
d="M272 211c0 -141 -51 -218 -171 -218c-48 0 -84 4 -120 11v113c18 0 42 -9 89 -9s57 56 57 120v363h-115v109h260v-489zM129 890h87l126 -90l-44 -64l-126 65l-127 -65l-44 64z" />
    <glyph glyph-name="jcircumflex" unicode="&#x135;" horiz-adv-x="276" 
d="M30 -204c33 43 41 96 41 170v534h128v-510c0 -127 -42 -201 -92 -254zM94 722h87l126 -90l-44 -64l-126 65l-127 -65l-44 64z" />
    <glyph glyph-name="Nacute" unicode="&#x143;" horiz-adv-x="679" 
d="M608 -1h-152l-237 431v-430h-148v700h148l244 -452v452h145v-701zM293 752l75 124h134l-98 -124h-111z" />
    <glyph glyph-name="nacute" unicode="&#x144;" horiz-adv-x="586" 
d="M505 0h-132v299c0 51 -19 92 -65 92c-27 0 -59 -15 -96 -46v-345h-131v500h110l21 -45c59 44 94 55 148 55c86 0 145 -56 145 -176v-334zM293 567l-88 32l103 137l115 -46z" />
    <glyph glyph-name="kgreenlandic" unicode="&#x138;" horiz-adv-x="570" 
d="M81 500h130v-181l170 181h147l-177 -189l210 -311h-141l-146 231l-63 -65v-166h-130v500z" />
    <glyph glyph-name="ldot" unicode="&#x140;" horiz-adv-x="431" 
d="M211 0h-130v700h130v-700zM401 231h-115v136h115v-136z" />
    <glyph glyph-name="kcedilla" unicode="&#x137;" horiz-adv-x="543" 
d="M81 700h130v-381l156 181h147l-183 -204l199 -296h-141l-135 216l-43 -50v-166h-130v700zM330 -40c0 -66 -11 -92 -63 -177l-89 31c32 65 41 83 41 146h111z" />
    <glyph glyph-name="Racute" unicode="&#x154;" horiz-adv-x="603" 
d="M216 304h12c65 0 89 -14 117 -79l97 -224h149l-99 234c-30 70 -51 104 -108 119c76 10 134 83 134 156c0 120 -72 191 -225 191h-222v-700h145v303zM216 587h73c48 0 75 -27 75 -79c0 -49 -30 -90 -85 -90h-63v169zM229 752l75 124h134l-98 -124h-111z" />
    <glyph glyph-name="Rcommaaccent" unicode="&#x156;" horiz-adv-x="603" 
d="M228 304h-12v-303h-145v700h222c153 0 225 -71 225 -191c0 -73 -58 -146 -134 -156c57 -15 78 -49 108 -119l99 -234h-149l-97 224c-28 65 -52 79 -117 79zM289 587h-73v-169h63c55 0 85 41 85 90c0 52 -27 79 -75 79zM370 -40c0 -66 -11 -92 -63 -177l-89 31
c32 65 41 83 41 146h111z" />
    <glyph glyph-name="rcommaaccent" unicode="&#x157;" horiz-adv-x="371" 
d="M212 332v-332h-131v500h104l12 -49c49 40 80 59 127 59c27 0 43 -6 44 -6l-12 -119c-9 3 -28 6 -49 6c-35 0 -69 -30 -95 -59zM184 -40c0 -66 -11 -92 -63 -177l-89 31c32 65 41 83 41 146h111z" />
    <glyph glyph-name="Rcaron" unicode="&#x158;" horiz-adv-x="603" 
d="M228 303h-12v-303h-145v700h222c153 0 225 -71 225 -191c0 -73 -58 -146 -134 -156c57 -15 78 -49 108 -119l99 -234h-149l-97 224c-28 65 -52 79 -117 79zM289 586h-73v-169h63c55 0 85 41 85 90c0 52 -27 79 -75 79zM331 773h-87l-126 90l44 64l126 -65l127 65l44 -64z
" />
    <glyph glyph-name="rcaron" unicode="&#x159;" horiz-adv-x="371" 
d="M212 332v-332h-131v500h104l12 -49c49 40 80 59 127 59c27 0 43 -6 44 -6l-12 -119c-9 3 -28 6 -49 6c-35 0 -69 -30 -95 -59zM256 589h-87l-126 90l44 64l126 -65l127 65l44 -64z" />
    <glyph glyph-name="currency" unicode="&#xa4;" horiz-adv-x="608" 
d="M302 61c-51 0 -91 8 -121 24l-55 -55l-85 86l58 58c-14 31 -23 73 -23 120c0 45 7 84 18 115l-59 60l93 93l54 -54c29 14 67 21 116 21c53 0 96 -10 128 -28l63 63l86 -86l-66 -66c17 -31 25 -72 25 -118s-9 -86 -23 -117l62 -62l-93 -93l-60 59
c-30 -13 -70 -20 -118 -20zM300 424c-72 0 -104 -60 -104 -133c0 -71 42 -125 105 -125c73 0 113 47 113 125c0 76 -40 133 -114 133z" />
    <glyph glyph-name="uni00AD" unicode="&#xad;" horiz-adv-x="400" 
d="M400 237h-400v105h400v-105z" />
    </font>
</defs>
</svg>
